<svg width="20" height="20" viewBox="0 0 20 20" fill="none" xmlns="http://www.w3.org/2000/svg">
<path d="M13.9842 1.89412L11.7342 4.76051H8.26582L6.01582 1.89412L7.31749 0.833344L9.99999 4.25008L12.6825 0.833344L13.9842 1.89412ZM3.33332 5.6098H16.6667C17.5833 5.6098 18.3333 6.37418 18.3333 7.3084V15.8014C18.3333 16.7357 17.5833 17.5 16.6667 17.5H3.33332C2.41666 17.5 1.66666 16.7357 1.66666 15.8014V7.3084C1.66666 6.37418 2.41666 5.6098 3.33332 5.6098ZM3.33332 15.8014H13.3333V7.3084H3.33332V15.8014ZM15 13.6782C15 14.147 15.3733 14.5274 15.8333 14.5274C16.2933 14.5274 16.6667 14.147 16.6667 13.6782C16.6667 13.2093 16.2933 12.8288 15.8333 12.8288C15.3733 12.8288 15 13.2093 15 13.6782ZM15 9.43168C15 9.90051 15.3733 10.2809 15.8333 10.2809C16.2933 10.2809 16.6667 9.90051 16.6667 9.43168C16.6667 8.96284 16.2933 8.58234 15.8333 8.58234C15.3733 8.58234 15 8.96284 15 9.43168Z" fill="white" fill-opacity="0.8"/>
</svg>
