<svg width="20" height="20" viewBox="0 0 20 20" fill="none" xmlns="http://www.w3.org/2000/svg">
<g clip-path="url(#clip0_12671_974)">
<path fill-rule="evenodd" clip-rule="evenodd" d="M17.475 3.10835C17.475 3.25835 17.5417 3.40002 17.675 3.46669C18.1333 3.70002 18.425 4.15002 18.5417 4.65002C18.7917 5.68335 19.1667 7.73335 19.1667 10.5584V14.65C19.1649 15.2288 18.9682 15.7901 18.6083 16.2434C18.2484 16.6967 17.7462 17.0155 17.1829 17.1484C16.6195 17.2813 16.0279 17.2205 15.5033 16.9759C14.9788 16.7312 14.5519 16.317 14.2917 15.8L12.825 12.875C12.7302 12.6948 12.5777 12.5516 12.3918 12.4685C12.2059 12.3854 11.9975 12.3671 11.8 12.4167C11.325 12.525 10.6667 12.6417 10 12.6417C9.33333 12.6417 8.66667 12.525 8.2 12.4167C7.79167 12.325 7.36667 12.5 7.175 12.875L5.70833 15.8C5.44808 16.317 5.02124 16.7312 4.49668 16.9759C3.97213 17.2205 3.38045 17.2813 2.81711 17.1484C2.25378 17.0155 1.75164 16.6967 1.39172 16.2434C1.0318 15.7901 0.835092 15.2288 0.833332 14.65V10.5584C0.833332 7.74169 1.21667 5.68335 1.45833 4.64169C1.58333 4.14169 1.86667 3.70002 2.325 3.47502C2.38953 3.439 2.44256 3.38545 2.47795 3.32057C2.51334 3.25569 2.52965 3.18211 2.525 3.10835C2.525 2.52502 2.925 2.00835 3.525 1.88335L5.96667 1.36669C6.38333 1.28335 6.8 1.41669 7.1 1.70002C7.39167 1.98335 7.75 2.29169 8.16667 2.26669C9.38806 2.20323 10.6119 2.20323 11.8333 2.26669C12.25 2.29169 12.6083 1.98335 12.9 1.69169C13.1917 1.41669 13.6167 1.27502 14.0333 1.36669L16.4833 1.88335C17.0667 2.00835 17.475 2.53335 17.475 3.10835ZM16.6667 5.97502C16.6667 6.30654 16.535 6.62448 16.3005 6.8589C16.0661 7.09332 15.7482 7.22502 15.4167 7.22502C15.0851 7.22502 14.7672 7.09332 14.5328 6.8589C14.2984 6.62448 14.1667 6.30654 14.1667 5.97502C14.1667 5.6435 14.2984 5.32556 14.5328 5.09114C14.7672 4.85672 15.0851 4.72502 15.4167 4.72502C15.7482 4.72502 16.0661 4.85672 16.3005 5.09114C16.535 5.32556 16.6667 5.6435 16.6667 5.97502ZM12.9167 9.72502C13.2482 9.72502 13.5661 9.59332 13.8005 9.3589C14.035 9.12448 14.1667 8.80654 14.1667 8.47502C14.1667 8.1435 14.035 7.82556 13.8005 7.59114C13.5661 7.35672 13.2482 7.22502 12.9167 7.22502C12.5851 7.22502 12.2672 7.35672 12.0328 7.59114C11.7984 7.82556 11.6667 8.1435 11.6667 8.47502C11.6667 8.80654 11.7984 9.12448 12.0328 9.3589C12.2672 9.59332 12.5851 9.72502 12.9167 9.72502ZM4.16667 5.55835C4.16667 5.33734 4.25446 5.12538 4.41074 4.9691C4.56702 4.81282 4.77899 4.72502 5 4.72502C5.22101 4.72502 5.43297 4.81282 5.58925 4.9691C5.74553 5.12538 5.83333 5.33734 5.83333 5.55835V6.39169H6.66667C6.88768 6.39169 7.09964 6.47948 7.25592 6.63576C7.4122 6.79204 7.5 7.00401 7.5 7.22502C7.5 7.44603 7.4122 7.65799 7.25592 7.81427C7.09964 7.97055 6.88768 8.05835 6.66667 8.05835H5.83333V8.89169C5.83333 9.1127 5.74553 9.32466 5.58925 9.48094C5.43297 9.63722 5.22101 9.72502 5 9.72502C4.77899 9.72502 4.56702 9.63722 4.41074 9.48094C4.25446 9.32466 4.16667 9.1127 4.16667 8.89169V8.05835H3.33333C3.11232 8.05835 2.90036 7.97055 2.74408 7.81427C2.5878 7.65799 2.5 7.44603 2.5 7.22502C2.5 7.00401 2.5878 6.79204 2.74408 6.63576C2.90036 6.47948 3.11232 6.39169 3.33333 6.39169H4.16667V5.55835Z" fill="white" fill-opacity="0.8"/>
</g>
<defs>
<clipPath id="clip0_12671_974">
<rect width="20" height="20" fill="white"/>
</clipPath>
</defs>
</svg>
